<svg xmlns="http://www.w3.org/2000/svg" width="1200" height="630" viewBox="0 0 1200 630">
  <defs>
    <radialGradient id="glow" cx="50%" cy="50%" r="50%">
      <stop offset="0%" style="stop-color:rgba(0,210,106,0.15)"/>
      <stop offset="100%" style="stop-color:rgba(0,210,106,0)"/>
    </radialGradient>
  </defs>
  <rect width="1200" height="630" fill="#0a0e14"/>
  <rect width="1200" height="630" fill="url(#glow)"/>
  <!-- Grid -->
  <g stroke="rgba(0,210,106,0.05)" stroke-width="1">
    <line x1="0" y1="0" x2="0" y2="630"/><line x1="60" y1="0" x2="60" y2="630"/><line x1="120" y1="0" x2="120" y2="630"/><line x1="180" y1="0" x2="180" y2="630"/><line x1="240" y1="0" x2="240" y2="630"/><line x1="300" y1="0" x2="300" y2="630"/><line x1="360" y1="0" x2="360" y2="630"/><line x1="420" y1="0" x2="420" y2="630"/><line x1="480" y1="0" x2="480" y2="630"/><line x1="540" y1="0" x2="540" y2="630"/><line x1="600" y1="0" x2="600" y2="630"/><line x1="660" y1="0" x2="660" y2="630"/><line x1="720" y1="0" x2="720" y2="630"/><line x1="780" y1="0" x2="780" y2="630"/><line x1="840" y1="0" x2="840" y2="630"/><line x1="900" y1="0" x2="900" y2="630"/><line x1="960" y1="0" x2="960" y2="630"/><line x1="1020" y1="0" x2="1020" y2="630"/><line x1="1080" y1="0" x2="1080" y2="630"/><line x1="1140" y1="0" x2="1140" y2="630"/><line x1="1200" y1="0" x2="1200" y2="630"/>
    <line x1="0" y1="60" x2="1200" y2="60"/><line x1="0" y1="120" x2="1200" y2="120"/><line x1="0" y1="180" x2="1200" y2="180"/><line x1="0" y1="240" x2="1200" y2="240"/><line x1="0" y1="300" x2="1200" y2="300"/><line x1="0" y1="360" x2="1200" y2="360"/><line x1="0" y1="420" x2="1200" y2="420"/><line x1="0" y1="480" x2="1200" y2="480"/><line x1="0" y1="540" x2="1200" y2="540"/><line x1="0" y1="600" x2="1200" y2="600"/>
  </g>
  <!-- Border -->
  <rect x="20" y="20" width="1160" height="590" fill="none" stroke="rgba(0,210,106,0.25)" stroke-width="2" rx="4"/>
  <!-- Compass emoji -->
  <text x="600" y="170" text-anchor="middle" font-size="60">&#x1F9ED;</text>
  <!-- Title -->
  <text x="600" y="250" text-anchor="middle" font-family="monospace" font-weight="bold" font-size="56" fill="#00d26a">JourneyHub</text>
  <!-- Subtitle -->
  <text x="600" y="300" text-anchor="middle" font-family="monospace" font-size="24" fill="#c8d6e5">Where Real Connections Happen</text>
  <!-- Features -->
  <text x="600" y="365" text-anchor="middle" font-family="monospace" font-size="16" fill="#5c6773">Growth Paths  &#183;  Quests  &#183;  AI Mood Analysis  &#183;  Co-Think Sessions</text>
  <!-- CTA button -->
  <rect x="440" y="405" width="320" height="50" rx="3" fill="rgba(0,210,106,0.15)" stroke="rgba(0,210,106,0.4)" stroke-width="2"/>
  <text x="600" y="437" text-anchor="middle" font-family="monospace" font-weight="bold" font-size="18" fill="#00d26a">Join the Community &#8594;</text>
  <!-- URL -->
  <text x="600" y="540" text-anchor="middle" font-family="monospace" font-size="14" fill="#3d4f5f">my-forum-9876f.web.app</text>
</svg>
